<?xml version="1.0" encoding="UTF-8" standalone="no"?><mxfile><diagram id="id-c7d917b261294ebcb83b39f2a2dbc881" name="jArchi Scripts Comprehensive System Overview"><mxGraphModel><root><mxCell id="0"/><mxCell id="1" parent="0"/><mxCell id="2" parent="1" style="shape=mxgraph.archimate3.application;appType=comp;archiType=square;whiteSpace=wrap;;whiteSpace=wrap;fillColor=#B5FFFF;" value="Archi" vertex="1"><mxGeometry as="geometry" height="60" width="120" x="1056" y="168"/></mxCell><mxCell id="3" parent="1" style="shape=mxgraph.archimate3.application;appType=comp;archiType=square;whiteSpace=wrap;;whiteSpace=wrap;fillColor=#B5FFFF;" value="jArchi Plugin" vertex="1"><mxGeometry as="geometry" height="60" width="120" x="790" y="30"/></mxCell><mxCell id="4" parent="1" style="shape=mxgraph.archimate3.application;appType=comp;archiType=square;whiteSpace=wrap;;whiteSpace=wrap;fillColor=#B5FFFF;" value="Script Menu" vertex="1"><mxGeometry as="geometry" height="60" width="120" x="445" y="150"/></mxCell><mxCell id="5" parent="1" style="shape=mxgraph.archimate3.application;appType=comp;archiType=square;whiteSpace=wrap;;whiteSpace=wrap;fillColor=#B5FFFF;" value="GraalVM JavaScript Engine" vertex="1"><mxGeometry as="geometry" height="60" width="120" x="615" y="150"/></mxCell><mxCell id="6" parent="1" style="shape=mxgraph.archimate3.application;appType=comp;archiType=square;whiteSpace=wrap;;whiteSpace=wrap;fillColor=#B5FFFF;" value="Script Library" vertex="1"><mxGeometry as="geometry" height="60" width="120" x="275" y="150"/></mxCell><mxCell id="7" parent="1" style="shape=mxgraph.archimate3.application;appType=comp;archiType=square;whiteSpace=wrap;;whiteSpace=wrap;fillColor=#B5FFFF;" value="API Client" vertex="1"><mxGeometry as="geometry" height="60" width="120" x="20" y="260"/></mxCell><mxCell id="8" parent="1" style="shape=mxgraph.archimate3.application;appType=comp;archiType=square;whiteSpace=wrap;;whiteSpace=wrap;fillColor=#B5FFFF;" value="Confluence Integration" vertex="1"><mxGeometry as="geometry" height="60" width="120" x="190" y="260"/></mxCell><mxCell id="9" parent="1" style="shape=mxgraph.archimate3.application;appType=comp;archiType=square;whiteSpace=wrap;;whiteSpace=wrap;fillColor=#B5FFFF;" value="Ollama Client" vertex="1"><mxGeometry as="geometry" height="60" width="120" x="365" y="260"/></mxCell><mxCell id="10" parent="1" style="shape=mxgraph.archimate3.application;appType=comp;archiType=square;whiteSpace=wrap;;whiteSpace=wrap;fillColor=#B5FFFF;" value="Chart.js Utility" vertex="1"><mxGeometry as="geometry" height="60" width="120" x="535" y="260"/></mxCell><mxCell id="11" parent="1" style="shape=mxgraph.archimate3.application;appType=passive;archiType=square;whiteSpace=wrap;;whiteSpace=wrap;fillColor=#C2F0FF;" value="Model Data" vertex="1"><mxGeometry as="geometry" height="60" width="120" x="1056" y="288"/></mxCell><mxCell id="12" parent="1" style="shape=mxgraph.archimate3.application;appType=role;archiType=square;whiteSpace=wrap;;whiteSpace=wrap;fillColor=#FFFFB5;" value="Architecture Modeler" vertex="1"><mxGeometry as="geometry" height="60" width="120" x="1321" y="168"/></mxCell><mxCell id="13" parent="1" style="shape=mxgraph.archimate3.application;appType=role;archiType=square;whiteSpace=wrap;;whiteSpace=wrap;fillColor=#FFFFB5;" value="Script Developer" vertex="1"><mxGeometry as="geometry" height="60" width="120" x="1501" y="168"/></mxCell><mxCell id="14" parent="1" style="shape=mxgraph.archimate3.application;appType=proc;archiType=rounded;whiteSpace=wrap;;whiteSpace=wrap;fillColor=#FFFFB5;" value="ArchiMate Modeling Process" vertex="1"><mxGeometry as="geometry" height="60" width="120" x="1281" y="278"/></mxCell><mxCell id="15" parent="1" style="shape=mxgraph.archimate3.application;appType=proc;archiType=rounded;whiteSpace=wrap;;whiteSpace=wrap;fillColor=#FFFFB5;" value="Script Development Process" vertex="1"><mxGeometry as="geometry" height="60" width="120" x="1501" y="278"/></mxCell><mxCell id="16" parent="1" style="shape=mxgraph.archimate3.application;appType=capability;archiType=rounded;whiteSpace=wrap;;whiteSpace=wrap;fillColor=#F5DEAA;" value="Modeling Efficiency" vertex="1"><mxGeometry as="geometry" height="60" width="120" x="1281" y="388"/></mxCell><mxCell id="17" parent="1" style="shape=mxgraph.archimate3.application;appType=capability;archiType=rounded;whiteSpace=wrap;;whiteSpace=wrap;fillColor=#F5DEAA;" value="Scripting Capability" vertex="1"><mxGeometry as="geometry" height="60" width="120" x="1456" y="388"/></mxCell><mxCell id="18" parent="1" style="shape=mxgraph.archimate3.application;appType=goal;archiType=oct;whiteSpace=wrap;;whiteSpace=wrap;fillColor=#CCCCFF;" value="Automate Repetitive Tasks" vertex="1"><mxGeometry as="geometry" height="60" width="120" x="1311" y="498"/></mxCell><mxCell id="19" parent="1" style="shape=mxgraph.archimate3.application;appType=sysSw;archiType=square;whiteSpace=wrap;;whiteSpace=wrap;fillColor=#FFFFFF;" value="Java Runtime" vertex="1"><mxGeometry as="geometry" height="60" width="120" x="888" y="260"/></mxCell><mxCell id="20" parent="1" style="shape=mxgraph.archimate3.application;appType=sysSw;archiType=square;whiteSpace=wrap;;whiteSpace=wrap;fillColor=#FFFFFF;" value="JavaScript Runtime" vertex="1"><mxGeometry as="geometry" height="60" width="120" x="696" y="260"/></mxCell><mxCell id="21" parent="1" style="shape=note;whiteSpace=wrap;html=1;backgroundOutline=1;darkOpacity=0.05;whiteSpace=wrap;;whiteSpace=wrap;fillColor=#FFFFFF;" value="This diagram provides a comprehensive overview of the jArchi Scripts system, showing the main components, their relationships, and how they fit into the broader context of ArchiMate modeling and script development processes." vertex="1"><mxGeometry as="geometry" height="80" width="300" x="1210" y="20"/></mxCell><mxCell edge="1" id="22" parent="1" source="2" style="endArrow=open;endSize=12;dashed=1;html=1;edgeStyle=orthogonalEdgeStyle;rounded=0;orthogonalLoop=1;jettySize=auto;html=1;" target="11" value="Accesses"><mxGeometry as="geometry" relative="1"/></mxCell><mxCell edge="1" id="23" parent="1" source="2" style="endArrow=open;endSize=12;dashed=1;html=1;edgeStyle=orthogonalEdgeStyle;rounded=0;orthogonalLoop=1;jettySize=auto;html=1;" target="14" value="Supports"><mxGeometry as="geometry" relative="1"/></mxCell><mxCell edge="1" id="24" parent="1" source="3" style="endArrow=open;endSize=12;dashed=1;html=1;edgeStyle=orthogonalEdgeStyle;rounded=0;orthogonalLoop=1;jettySize=auto;html=1;" target="2" value="Extends"><mxGeometry as="geometry" relative="1"/></mxCell><mxCell edge="1" id="25" parent="1" source="3" style="endArrow=diamondThin;endFill=1;endSize=24;html=1;edgeStyle=orthogonalEdgeStyle;rounded=0;orthogonalLoop=1;jettySize=auto;html=1;" target="4" value="Contains"><mxGeometry as="geometry" relative="1"/></mxCell><mxCell edge="1" id="26" parent="1" source="3" style="endArrow=diamondThin;endFill=1;endSize=24;html=1;edgeStyle=orthogonalEdgeStyle;rounded=0;orthogonalLoop=1;jettySize=auto;html=1;" target="5" value="Contains"><mxGeometry as="geometry" relative="1"/></mxCell><mxCell edge="1" id="27" parent="1" source="3" style="endArrow=diamondThin;endFill=1;endSize=24;html=1;edgeStyle=orthogonalEdgeStyle;rounded=0;orthogonalLoop=1;jettySize=auto;html=1;" target="6" value="Contains"><mxGeometry as="geometry" relative="1"/></mxCell><mxCell edge="1" id="28" parent="1" source="3" style="endArrow=open;endSize=12;dashed=1;html=1;edgeStyle=orthogonalEdgeStyle;rounded=0;orthogonalLoop=1;jettySize=auto;html=1;" target="11" value="Accesses"><mxGeometry as="geometry" relative="1"/></mxCell><mxCell edge="1" id="29" parent="1" source="3" style="endArrow=open;endSize=12;dashed=1;html=1;edgeStyle=orthogonalEdgeStyle;rounded=0;orthogonalLoop=1;jettySize=auto;html=1;" target="15" value="Supports"><mxGeometry as="geometry" relative="1"/></mxCell><mxCell edge="1" id="30" parent="1" source="6" style="endArrow=open;endSize=12;dashed=1;html=1;edgeStyle=orthogonalEdgeStyle;rounded=0;orthogonalLoop=1;jettySize=auto;html=1;" target="7" value="Provides"><mxGeometry as="geometry" relative="1"/></mxCell><mxCell edge="1" id="31" parent="1" source="6" style="endArrow=open;endSize=12;dashed=1;html=1;edgeStyle=orthogonalEdgeStyle;rounded=0;orthogonalLoop=1;jettySize=auto;html=1;" target="8" value="Provides"><mxGeometry as="geometry" relative="1"/></mxCell><mxCell edge="1" id="32" parent="1" source="6" style="endArrow=open;endSize=12;dashed=1;html=1;edgeStyle=orthogonalEdgeStyle;rounded=0;orthogonalLoop=1;jettySize=auto;html=1;" target="9" value="Provides"><mxGeometry as="geometry" relative="1"/></mxCell><mxCell edge="1" id="33" parent="1" source="6" style="endArrow=open;endSize=12;dashed=1;html=1;edgeStyle=orthogonalEdgeStyle;rounded=0;orthogonalLoop=1;jettySize=auto;html=1;" target="10" value="Provides"><mxGeometry as="geometry" relative="1"/></mxCell><mxCell edge="1" id="34" parent="1" source="12" style="endArrow=block;endFill=0;endSize=12;html=1;edgeStyle=orthogonalEdgeStyle;rounded=0;orthogonalLoop=1;jettySize=auto;html=1;" target="14" value="Performs"><mxGeometry as="geometry" relative="1"/></mxCell><mxCell edge="1" id="35" parent="1" source="13" style="endArrow=block;endFill=0;endSize=12;html=1;edgeStyle=orthogonalEdgeStyle;rounded=0;orthogonalLoop=1;jettySize=auto;html=1;" target="15" value="Performs"><mxGeometry as="geometry" relative="1"/></mxCell><mxCell edge="1" id="36" parent="1" source="14" style="endArrow=block;dashed=1;endFill=0;endSize=12;html=1;edgeStyle=orthogonalEdgeStyle;rounded=0;orthogonalLoop=1;jettySize=auto;html=1;" target="16" value="Realizes"><mxGeometry as="geometry" relative="1"/></mxCell><mxCell edge="1" id="37" parent="1" source="15" style="endArrow=block;dashed=1;endFill=0;endSize=12;html=1;edgeStyle=orthogonalEdgeStyle;rounded=0;orthogonalLoop=1;jettySize=auto;html=1;" target="17" value="Realizes"><mxGeometry as="geometry" relative="1"/></mxCell><mxCell edge="1" id="38" parent="1" source="16" style="endArrow=block;dashed=1;endFill=0;endSize=12;html=1;edgeStyle=orthogonalEdgeStyle;rounded=0;orthogonalLoop=1;jettySize=auto;html=1;" target="18" value="Realizes"><mxGeometry as="geometry" relative="1"/></mxCell><mxCell edge="1" id="39" parent="1" source="17" style="endArrow=block;dashed=1;endFill=0;endSize=12;html=1;edgeStyle=orthogonalEdgeStyle;rounded=0;orthogonalLoop=1;jettySize=auto;html=1;" target="18" value="Realizes"><mxGeometry as="geometry" relative="1"/></mxCell><mxCell edge="1" id="40" parent="1" source="19" style="endArrow=open;endSize=12;dashed=1;html=1;edgeStyle=orthogonalEdgeStyle;rounded=0;orthogonalLoop=1;jettySize=auto;html=1;" target="2" value="Supports"><mxGeometry as="geometry" relative="1"/></mxCell><mxCell edge="1" id="41" parent="1" source="20" style="endArrow=open;endSize=12;dashed=1;html=1;edgeStyle=orthogonalEdgeStyle;rounded=0;orthogonalLoop=1;jettySize=auto;html=1;" target="5" value="Supports"><mxGeometry as="geometry" relative="1"/></mxCell></root></mxGraphModel></diagram></mxfile>